<svg xmlns="http://www.w3.org/2000/svg" viewBox="0 0 128 128" width="128" height="128">
  <defs>
    <linearGradient id="bg" x1="0%" y1="0%" x2="100%" y2="100%">
      <stop offset="0%" style="stop-color:#161b22"/>
      <stop offset="100%" style="stop-color:#0d1117"/>
    </linearGradient>
    <linearGradient id="accent" x1="0%" y1="0%" x2="100%" y2="0%">
      <stop offset="0%" style="stop-color:#1f6feb"/>
      <stop offset="100%" style="stop-color:#58a6ff"/>
    </linearGradient>
    <linearGradient id="green" x1="0%" y1="0%" x2="100%" y2="0%">
      <stop offset="0%" style="stop-color:#238636"/>
      <stop offset="100%" style="stop-color:#3fb950"/>
    </linearGradient>
  </defs>

  <!-- Background rounded rect -->
  <rect width="128" height="128" rx="22" fill="url(#bg)"/>
  <rect width="128" height="128" rx="22" fill="none" stroke="#30363d" stroke-width="2"/>

  <!-- Circuit board lines -->
  <line x1="20" y1="64" x2="108" y2="64" stroke="#21262d" stroke-width="1.5"/>
  <line x1="64" y1="20" x2="64" y2="108" stroke="#21262d" stroke-width="1.5"/>

  <!-- CPU chip in center -->
  <rect x="40" y="40" width="48" height="48" rx="6" fill="#21262d" stroke="#30363d" stroke-width="1.5"/>

  <!-- CPU pins left -->
  <line x1="24" y1="50" x2="40" y2="50" stroke="url(#accent)" stroke-width="2" stroke-linecap="round"/>
  <line x1="24" y1="60" x2="40" y2="60" stroke="url(#accent)" stroke-width="2" stroke-linecap="round"/>
  <line x1="24" y1="70" x2="40" y2="70" stroke="url(#accent)" stroke-width="2" stroke-linecap="round"/>
  <line x1="24" y1="78" x2="40" y2="78" stroke="url(#accent)" stroke-width="2" stroke-linecap="round"/>

  <!-- CPU pins right -->
  <line x1="88" y1="50" x2="104" y2="50" stroke="url(#accent)" stroke-width="2" stroke-linecap="round"/>
  <line x1="88" y1="60" x2="104" y2="60" stroke="url(#accent)" stroke-width="2" stroke-linecap="round"/>
  <line x1="88" y1="70" x2="104" y2="70" stroke="url(#accent)" stroke-width="2" stroke-linecap="round"/>
  <line x1="88" y1="78" x2="104" y2="78" stroke="url(#accent)" stroke-width="2" stroke-linecap="round"/>

  <!-- CPU pins top -->
  <line x1="52" y1="24" x2="52" y2="40" stroke="url(#accent)" stroke-width="2" stroke-linecap="round"/>
  <line x1="64" y1="24" x2="64" y2="40" stroke="url(#accent)" stroke-width="2" stroke-linecap="round"/>
  <line x1="76" y1="24" x2="76" y2="40" stroke="url(#accent)" stroke-width="2" stroke-linecap="round"/>

  <!-- CPU pins bottom -->
  <line x1="52" y1="88" x2="52" y2="104" stroke="url(#accent)" stroke-width="2" stroke-linecap="round"/>
  <line x1="64" y1="88" x2="64" y2="104" stroke="url(#accent)" stroke-width="2" stroke-linecap="round"/>
  <line x1="76" y1="88" x2="76" y2="104" stroke="url(#accent)" stroke-width="2" stroke-linecap="round"/>

  <!-- Inner chip highlight -->
  <rect x="48" y="48" width="32" height="32" rx="3" fill="url(#accent)" opacity="0.15"/>

  <!-- Status dot (green) -->
  <circle cx="64" cy="64" r="8" fill="url(#green)"/>
  <circle cx="64" cy="64" r="4" fill="#ffffff" opacity="0.9"/>

  <!-- Corner dots -->
  <circle cx="20" cy="20" r="3" fill="#30363d"/>
  <circle cx="108" cy="20" r="3" fill="#30363d"/>
  <circle cx="20" cy="108" r="3" fill="#30363d"/>
  <circle cx="108" cy="108" r="3" fill="#30363d"/>
</svg>
